<?xml version="1.0" standalone="no"?>
<!DOCTYPE svg PUBLIC "-//W3C//DTD SVG 20010904//EN"
 "http://www.w3.org/TR/2001/REC-SVG-20010904/DTD/svg10.dtd">
<svg version="1.0" xmlns="http://www.w3.org/2000/svg"
 width="320.000000pt" height="320.000000pt" viewBox="0 0 320.000000 320.000000"
 preserveAspectRatio="xMidYMid meet">

<g transform="translate(0.000000,320.000000) scale(0.100000,-0.100000)"
fill="#800000" stroke="none">
<path d="M830 2413 c-134 -29 -268 -78 -353 -130 l-60 -36 7 -91 c11 -147 71
-474 90 -493 3 -3 30 16 60 43 l55 49 -7 70 c-4 39 -7 155 -7 259 1 188 1 188
25 208 41 34 118 68 239 109 133 44 116 48 -49 12z"/>
<path d="M2295 2406 c113 -37 219 -84 253 -112 20 -17 23 -30 28 -154 4 -81 2
-185 -5 -260 l-13 -125 54 -47 c29 -26 56 -48 60 -48 17 0 80 343 94 506 l6
82 -68 40 c-84 49 -236 103 -372 131 -141 29 -154 25 -37 -13z"/>
<path d="M1070 2156 c0 -8 14 -17 33 -21 17 -4 42 -13 55 -21 22 -14 22 -15
22 -303 0 -225 -3 -291 -13 -299 -7 -6 -32 -14 -55 -18 -32 -5 -42 -11 -42
-25 0 -18 15 -19 355 -19 l355 0 4 23 c3 12 8 64 11 115 6 87 5 92 -13 92 -14
0 -30 -17 -50 -52 -17 -29 -43 -68 -59 -86 -25 -31 -35 -35 -103 -42 -79 -9
-132 -5 -167 12 l-23 11 0 294 0 294 35 15 c19 7 44 14 55 14 11 0 20 7 20 15
0 13 -30 15 -210 15 -175 0 -210 -2 -210 -14z"/>
<path d="M1400 1742 c0 -14 9 -21 32 -26 18 -3 42 -13 55 -21 21 -14 23 -23
23 -96 l0 -81 55 4 c83 7 125 52 135 143 l5 50 57 -2 c31 -1 70 -9 86 -17 42
-22 67 -89 59 -157 -8 -64 -26 -93 -77 -119 -41 -21 -130 -28 -130 -10 0 6
-38 10 -95 10 l-95 0 0 -147 c0 -82 -4 -154 -9 -162 -5 -7 -31 -19 -57 -26
-31 -8 -50 -18 -52 -29 -3 -14 17 -16 207 -16 199 0 211 1 211 19 0 13 -10 20
-36 24 -67 11 -74 26 -74 152 l0 112 103 6 c216 11 331 103 314 253 -6 58 -31
90 -95 121 l-57 28 -282 3 c-275 4 -283 3 -283 -16z"/>
<path d="M597 1582 l-48 -49 26 -74 c43 -121 169 -367 250 -489 76 -114 185
-253 270 -345 42 -45 45 -47 27 -15 -10 19 -52 89 -92 155 -178 291 -312 593
-361 810 -7 30 -15 55 -18 55 -4 0 -28 -22 -54 -48z"/>
<path d="M2510 1543 c-64 -247 -185 -508 -384 -832 -42 -68 -75 -125 -73 -127
2 -2 26 22 53 53 234 271 383 508 489 777 l46 119 -47 48 c-27 27 -51 49 -55
49 -3 0 -16 -39 -29 -87z"/>
<path d="M1097 783 c118 -187 257 -333 427 -453 l68 -49 77 51 c102 68 301
270 379 385 34 50 65 100 68 110 4 10 -40 -28 -97 -84 -57 -56 -132 -125 -167
-152 -75 -60 -247 -181 -257 -181 -12 0 -195 129 -274 193 -41 34 -114 100
-163 149 -49 48 -91 88 -93 88 -3 0 12 -26 32 -57z"/>
</g>
</svg>
